<?xml version="1.0" standalone="no"?>
<!DOCTYPE svg PUBLIC "-//W3C//DTD SVG 20010904//EN"
 "http://www.w3.org/TR/2001/REC-SVG-20010904/DTD/svg10.dtd">
<svg version="1.0" xmlns="http://www.w3.org/2000/svg"
 width="512.000000pt" height="512.000000pt" viewBox="0 0 512.000000 512.000000"
 preserveAspectRatio="xMidYMid meet">

<g transform="translate(0.000000,512.000000) scale(0.100000,-0.100000)"
fill="#000000" stroke="none">
<path d="M2415 4984 c-574 -43 -1073 -255 -1487 -630 -428 -388 -700 -914
-779 -1504 -16 -122 -16 -458 0 -580 57 -429 216 -823 464 -1155 402 -538 980
-875 1657 -966 119 -16 467 -16 580 0 354 50 659 154 937 319 988 586 1435
1764 1078 2847 -290 884 -1054 1520 -1980 1650 -103 15 -381 26 -470 19z m360
-999 c86 -23 209 -86 287 -145 94 -72 171 -167 228 -285 66 -137 84 -212 84
-360 0 -148 -18 -223 -84 -360 -83 -171 -204 -291 -375 -375 -110 -53 -180
-70 -316 -77 -186 -9 -334 30 -484 128 -83 54 -175 142 -224 213 -46 67 -106
199 -127 281 -24 96 -24 284 0 380 21 82 81 214 127 281 108 157 302 285 499
329 84 19 301 13 385 -10z m80 -1760 c113 -20 298 -81 409 -135 305 -145 579
-416 734 -725 41 -82 102 -232 102 -251 0 -2 -693 -4 -1540 -4 -847 0 -1540 2
-1540 4 0 19 61 169 102 251 135 269 361 510 630 670 152 91 378 170 568 199
123 20 409 15 535 -9z"/>
</g>
</svg>
